<?xml version="1.0" encoding="UTF-8"?>
<svg width="32px" height="26px" viewBox="0 0 32 26" version="1.1" xmlns="http://www.w3.org/2000/svg" xmlns:xlink="http://www.w3.org/1999/xlink">
    <title>Chart Icon</title>
    <defs>
        <rect id="path-1" x="0" y="37" width="369" height="65"></rect>
        <filter x="-0.7%" y="-3.8%" width="101.4%" height="107.7%" filterUnits="objectBoundingBox" id="filter-2">
            <feGaussianBlur stdDeviation="2" in="SourceAlpha" result="shadowBlurInner1"></feGaussianBlur>
            <feOffset dx="0" dy="1" in="shadowBlurInner1" result="shadowOffsetInner1"></feOffset>
            <feComposite in="shadowOffsetInner1" in2="SourceAlpha" operator="arithmetic" k2="-1" k3="1" result="shadowInnerInner1"></feComposite>
            <feColorMatrix values="0 0 0 0 0   0 0 0 0 0   0 0 0 0 0  0 0 0 0.5 0" type="matrix" in="shadowInnerInner1"></feColorMatrix>
        </filter>
    </defs>
    <g id="Page-1" stroke="none" stroke-width="1" fill="none" fill-rule="evenodd">
        <g id="Data-" transform="translate(-46.000000, -200.000000)">
            <rect fill="#DEE9EE" x="0" y="0" width="2071" height="1523"></rect>
            <g id="Panel-Left" transform="translate(0.000000, -57.000000)">
                <rect id="BG-Panel-Left" fill="#505275" x="0" y="57" width="369" height="1543"></rect>
                <g id="Item-1" transform="translate(0.000000, 202.000000)">
                    <g id="Active" opacity="0.125349813">
                        <use fill="#121212" fill-rule="evenodd" xlink:href="#path-1"></use>
                        <use fill="black" fill-opacity="1" filter="url(#filter-2)" xlink:href="#path-1"></use>
                    </g>
                    <g id="Group" transform="translate(46.000000, 55.000000)" fill="#FFFFFF">
                        <polyline id="Fill-164" points="10 24 8 24 8 14 4 14 4 24 2 24 2 12 10 12 10 24"></polyline>
                        <polyline id="Fill-165" points="20 24 18 24 18 8 14 8 14 24 12 24 12 6 20 6 20 24"></polyline>
                        <polyline id="Fill-166" points="30 24 28 24 28 2 24 2 24 24 22 24 22 0 30 0 30 24"></polyline>
                        <polygon id="Fill-167" points="0 24 32 24 32 26 0 26"></polygon>
                    </g>
                </g>
            </g>
        </g>
    </g>
</svg>