<?xml version="1.0" encoding="UTF-8"?>
<svg width="34px" height="34px" viewBox="0 0 34 34" version="1.1" xmlns="http://www.w3.org/2000/svg" xmlns:xlink="http://www.w3.org/1999/xlink">
    <title>Clock Icon</title>
    <g id="Page-1" stroke="none" stroke-width="1" fill="none" fill-rule="evenodd">
        <g id="Data-" transform="translate(-46.000000, -320.000000)">
            <rect fill="#DEE9EE" x="0" y="0" width="2071" height="1523"></rect>
            <g id="Panel-Left" transform="translate(0.000000, -57.000000)">
                <rect id="BG-Panel-Left" fill="#505275" x="0" y="57" width="369" height="1543"></rect>
                <g id="Center" transform="translate(0.000000, 202.000000)" fill="#FFFFFF" fill-opacity="0.396116395">
                    <g id="Group" transform="translate(46.000000, 175.000000)">
                        <path d="M17,33.93 C7.665,33.93 0.07,26.335 0.07,17 C0.07,7.665 7.665,0.07 17,0.07 C26.335,0.07 33.93,7.665 33.93,17 C33.93,26.335 26.335,33.93 17,33.93 L17,33.93 Z M17,1.93 C8.69,1.93 1.93,8.69 1.93,17 C1.93,25.31 8.69,32.07 17,32.07 C25.31,32.07 32.07,25.31 32.07,17 C32.07,8.69 25.31,1.93 17,1.93 L17,1.93 Z" id="Fill-131"></path>
                        <polyline id="Fill-132" points="22.293 25.707 16 19.414 16 8 18 8 18 18.586 23.707 24.293 22.293 25.707"></polyline>
                    </g>
                </g>
            </g>
        </g>
    </g>
</svg>