<?xml version="1.0" encoding="UTF-8"?>
<svg width="793px" height="18px" viewBox="0 0 793 18" version="1.1" xmlns="http://www.w3.org/2000/svg" xmlns:xlink="http://www.w3.org/1999/xlink">
    <title>Progress Arrows</title>
    <g id="Page-1" stroke="none" stroke-width="1" fill="none" fill-rule="evenodd">
        <g id="Data-" transform="translate(-568.000000, -769.000000)">
            <g id="Conversion-Box" transform="translate(408.000000, 139.000000)">
                <rect id="BG-Conversion" fill="#FFFFFF" x="0" y="0" width="1068" height="704" rx="10"></rect>
                <g id="Progress-Arrows" transform="translate(160.000000, 630.000000)">
                    <g id="Fill-29-+-Fill-30" transform="translate(389.500000, 0.000000)" fill="#46A9D4">
                        <polyline id="Fill-29" points="18 10.973 9.658 2.63 1.316 10.973 0 9.657 9.658 0 19.316 9.657 18 10.973"></polyline>
                        <polygon id="Fill-30" points="9 1 11 1 11 18 9 18"></polygon>
                    </g>
                    <g id="Fill-29-+-Fill-30-Copy-4" transform="translate(518.000000, 0.000000)" fill="#46A9D4">
                        <polyline id="Fill-29" points="18 10.973 9.658 2.63 1.316 10.973 0 9.657 9.658 0 19.316 9.657 18 10.973"></polyline>
                        <polygon id="Fill-30" points="9 1 11 1 11 18 9 18"></polygon>
                    </g>
                    <g id="Fill-29-+-Fill-30-Copy" transform="translate(269.000000, 9.000000) scale(1, -1) translate(-269.000000, -9.000000) translate(259.000000, 0.000000)" fill="#FF8B4C">
                        <polyline id="Fill-29" points="18 10.973 9.658 2.63 1.316 10.973 0 9.657 9.658 0 19.316 9.657 18 10.973"></polyline>
                        <polygon id="Fill-30" points="9 1 11 1 11 18 9 18"></polygon>
                    </g>
                    <g id="Fill-29-+-Fill-30-Copy-2" transform="translate(138.500000, 9.000000) scale(1, -1) translate(-138.500000, -9.000000) translate(128.500000, 0.000000)" fill="#FF8B4C">
                        <polyline id="Fill-29" points="18 10.973 9.658 2.63 1.316 10.973 0 9.657 9.658 0 19.316 9.657 18 10.973"></polyline>
                        <polygon id="Fill-30" points="9 1 11 1 11 18 9 18"></polygon>
                    </g>
                    <g id="Fill-29-+-Fill-30-Copy-3" transform="translate(8.571429, 9.500000) rotate(-90.000000) translate(-8.571429, -9.500000) translate(7.071429, 1.000000)" fill="#9F9F9F">
                        <polygon id="Fill-30" points="1 0 3 0 3 17 1 17"></polygon>
                    </g>
                    <g id="Fill-29-+-Fill-30-Copy-5" transform="translate(659.500000, 9.000000) scale(1, -1) translate(-659.500000, -9.000000) translate(649.500000, 0.000000)" fill="#FF8B4C">
                        <polyline id="Fill-29" points="18 10.973 9.658 2.63 1.316 10.973 0 9.657 9.658 0 19.316 9.657 18 10.973"></polyline>
                        <polygon id="Fill-30" points="9 1 11 1 11 18 9 18"></polygon>
                    </g>
                    <g id="Fill-29-+-Fill-30-Copy-6" transform="translate(773.000000, 0.000000)" fill="#46A9D4">
                        <polyline id="Fill-29" points="18 10.973 9.658 2.63 1.316 10.973 0 9.657 9.658 0 19.316 9.657 18 10.973"></polyline>
                        <polygon id="Fill-30" points="9 1 11 1 11 18 9 18"></polygon>
                    </g>
                </g>
            </g>
        </g>
    </g>
</svg>