<?xml version="1.0" encoding="UTF-8"?>
<svg width="34px" height="22px" viewBox="0 0 34 22" version="1.1" xmlns="http://www.w3.org/2000/svg" xmlns:xlink="http://www.w3.org/1999/xlink">
    <title>Eye Icon</title>
    <g id="Page-1" stroke="none" stroke-width="1" fill="none" fill-rule="evenodd">
        <g id="Data-" transform="translate(-45.000000, -265.000000)">
            <rect fill="#DEE9EE" x="0" y="0" width="2071" height="1523"></rect>
            <g id="Panel-Left" transform="translate(0.000000, -57.000000)">
                <rect id="BG-Panel-Left" fill="#505275" x="0" y="57" width="369" height="1543"></rect>
                <g id="Center" transform="translate(0.000000, 202.000000)" fill="#FFFFFF" fill-opacity="0.396116395">
                    <g id="Group" transform="translate(45.000000, 120.000000)">
                        <path d="M17,21.93 C5.557,21.93 0.383,11.845 0.168,11.416 C0.037,11.154 0.037,10.846 0.168,10.584 C0.383,10.155 5.557,0.07 17,0.07 C28.443,0.07 33.617,10.155 33.832,10.584 C33.963,10.846 33.963,11.154 33.832,11.416 C33.617,11.845 28.443,21.93 17,21.93 L17,21.93 Z M2.065,11 C3.145,12.833 7.981,20.07 17,20.07 C26.019,20.07 30.855,12.833 31.935,11 C30.855,9.167 26.019,1.93 17,1.93 C7.981,1.93 3.145,9.167 2.065,11 L2.065,11 Z" id="Fill-174"></path>
                        <path d="M17,19.93 C12.076,19.93 8.07,15.924 8.07,11 C8.07,6.076 12.076,2.07 17,2.07 C21.924,2.07 25.93,6.076 25.93,11 C25.93,15.924 21.924,19.93 17,19.93 L17,19.93 Z M17,3.93 C13.102,3.93 9.93,7.102 9.93,11 C9.93,14.898 13.102,18.07 17,18.07 C20.898,18.07 24.07,14.898 24.07,11 C24.07,7.102 20.898,3.93 17,3.93 L17,3.93 Z" id="Fill-175"></path>
                        <path d="M17,15.93 C14.281,15.93 12.07,13.718 12.07,11 C12.07,10.486 12.486,10.07 13,10.07 C13.514,10.07 13.93,10.486 13.93,11 C13.93,12.693 15.308,14.07 17,14.07 C18.692,14.07 20.07,12.693 20.07,11 C20.07,9.307 18.692,7.93 17,7.93 C16.486,7.93 16.07,7.514 16.07,7 C16.07,6.486 16.486,6.07 17,6.07 C19.719,6.07 21.93,8.282 21.93,11 C21.93,13.718 19.719,15.93 17,15.93" id="Fill-176"></path>
                    </g>
                </g>
            </g>
        </g>
    </g>
</svg>