<?xml version="1.0" encoding="UTF-8"?>
<svg width="31px" height="31px" viewBox="0 0 31 31" version="1.1" xmlns="http://www.w3.org/2000/svg" xmlns:xlink="http://www.w3.org/1999/xlink">
    <title>ICON Gear</title>
    <g id="Page-1" stroke="none" stroke-width="1" fill="none" fill-rule="evenodd">
        <g id="Data-" transform="translate(-1414.000000, -165.000000)">
            <rect fill="#DEE9EE" x="0" y="0" width="2071" height="1523"></rect>
            <g id="Conversion-Box" transform="translate(408.000000, 139.000000)">
                <rect id="BG-Conversion" fill="#FFFFFF" x="0" y="0" width="1068" height="704" rx="10"></rect>
                <g id="Head">
                    <path d="M0,10.0071783 C0,4.48036635 4.4723843,0 9.99556391,0 L1058.00444,0 C1063.52483,0 1068,4.47266735 1068,10.0071783 L1068,77 L0,77 L0,10.0071783 Z" id="Rectangle-4-Copy-5" fill="#46A9D4"></path>
                    <g id="Group" transform="translate(1006.000000, 26.000000)" fill="#FFFFFF" opacity="0.77">
                        <g id="Gear-Icon">
                            <path d="M17.6781579,0.0571052632 L18.9352895,3.82605263 C19.7657632,4.06997368 20.5676842,4.402 21.3271842,4.81642105 L24.8791316,3.03963158 L27.9603684,6.12086842 L26.1835789,9.67363158 C26.598,10.4315 26.9292105,11.2326053 27.1739474,12.0655263 L30.9428947,13.3218421 L30.9428947,17.6781579 L27.1739474,18.9344737 C26.9292105,19.7673947 26.598,20.5685 26.1835789,21.3263684 L27.9603684,24.8791316 L24.8791316,27.9595526 L21.3271842,26.1835789 C20.5676842,26.598 19.7657632,26.9300263 18.9352895,27.1739474 L17.6781579,30.9428947 L13.3218421,30.9428947 L12.0647105,27.1739474 C11.2334211,26.9300263 10.4323158,26.598 9.67281579,26.1835789 L6.12086842,27.9595526 L3.03963158,24.8791316 L4.81642105,21.3263684 C4.402,20.5685 4.07078947,19.7673947 3.82605263,18.9344737 L0.0571052632,17.6781579 L0.0571052632,13.3218421 L3.82605263,12.0655263 C4.07078947,11.2326053 4.402,10.4315 4.81642105,9.67363158 L3.03963158,6.12086842 L6.12086842,3.03963158 L9.67281579,4.81642105 C10.4323158,4.402 11.2334211,4.06997368 12.0647105,3.82605263 L13.3218421,0.0571052632 L17.6781579,0.0571052632 Z M15.5,8.215 C11.4830526,8.215 8.215,11.4830526 8.215,15.5 C8.215,19.5169474 11.4830526,22.785 15.5,22.785 C19.5169474,22.785 22.785,19.5169474 22.785,15.5 C22.785,11.4830526 19.5169474,8.215 15.5,8.215 Z" id="Fill-46"></path>
                        </g>
                    </g>
                </g>
            </g>
        </g>
    </g>
</svg>