<?xml version="1.0" encoding="UTF-8"?>
<svg width="34px" height="28px" viewBox="0 0 34 28" version="1.1" xmlns="http://www.w3.org/2000/svg" xmlns:xlink="http://www.w3.org/1999/xlink">
    <title>Storage Icon</title>
    <g id="Page-1" stroke="none" stroke-width="1" fill="none" fill-rule="evenodd">
        <g id="Data-" transform="translate(-49.000000, -680.000000)">
            <rect fill="#DEE9EE" x="0" y="0" width="2071" height="1523"></rect>
            <g id="Panel-Left" transform="translate(0.000000, -57.000000)">
                <rect id="BG-Panel-Left" fill="#505275" x="0" y="57" width="369" height="1543"></rect>
                <g id="Center" transform="translate(0.000000, 202.000000)" fill="#FFFFFF" fill-opacity="0.396116395">
                    <g id="Item-2" transform="translate(49.000000, 357.000000)">
                        <g id="Group" transform="translate(0.000000, 178.000000)">
                            <path d="M34,8 L32,8 L32,3 C32,2.449 31.552,2 31,2 L3,2 C2.448,2 2,2.449 2,3 L2,8 L0,8 L0,3 C0,1.346 1.346,0 3,0 L31,0 C32.654,0 34,1.346 34,3 L34,8" id="Fill-180"></path>
                            <path d="M29,28 L5,28 C3.346,28 2,26.654 2,25 L2,8 L4,8 L4,25 C4,25.551 4.448,26 5,26 L29,26 C29.552,26 30,25.551 30,25 L30,8 L32,8 L32,25 C32,26.654 30.654,28 29,28" id="Fill-181"></path>
                            <path d="M21,14 L13,14 C12.447,14 12,13.552 12,13 C12,12.448 12.447,12 13,12 L21,12 C21.553,12 22,12.448 22,13 C22,13.552 21.553,14 21,14" id="Fill-182"></path>
                            <polygon id="Fill-183" points="0 6 34 6 34 8 0 8"></polygon>
                        </g>
                    </g>
                </g>
            </g>
        </g>
    </g>
</svg>