<?xml version="1.0" encoding="UTF-8"?>
<svg width="29px" height="29px" viewBox="0 0 29 29" version="1.1" xmlns="http://www.w3.org/2000/svg" xmlns:xlink="http://www.w3.org/1999/xlink">
    <title>Tag Icon</title>
    <g id="Page-1" stroke="none" stroke-width="1" fill="none" fill-rule="evenodd">
        <g id="Data-" transform="translate(-47.000000, -386.000000)">
            <rect fill="#DEE9EE" x="0" y="0" width="2071" height="1523"></rect>
            <g id="Panel-Left" transform="translate(0.000000, -57.000000)">
                <rect id="BG-Panel-Left" fill="#505275" x="0" y="57" width="369" height="1543"></rect>
                <g id="Center" transform="translate(0.000000, 202.000000)" fill="#FFFFFF" fill-opacity="0.396116395">
                    <g id="Group" transform="translate(47.000000, 241.000000)">
                        <path d="M13,28.086 C12.144,28.086 11.34,27.754 10.737,27.151 L1.849,18.263 C0.601,17.015 0.601,14.985 1.849,13.737 L13.737,1.849 C14.774,0.812 16.734,0 18.2,0 L25.8,0 C27.564,0 29,1.435 29,3.2 L29,10.8 C29,12.266 28.188,14.226 27.151,15.263 L15.263,27.151 C14.66,27.754 13.856,28.086 13,28.086 L13,28.086 Z M18.2,2 C17.249,2 15.824,2.59 15.151,3.263 L3.263,15.151 C2.795,15.619 2.795,16.381 3.263,16.849 L12.151,25.737 C12.602,26.186 13.398,26.186 13.849,25.737 L25.737,13.849 C26.41,13.176 27,11.751 27,10.8 L27,3.2 C27,2.539 26.461,2 25.8,2 L18.2,2 L18.2,2 Z" id="Fill-129"></path>
                        <path d="M21,11.93 C18.833,11.93 17.07,10.167 17.07,8 C17.07,5.833 18.833,4.07 21,4.07 C23.167,4.07 24.93,5.833 24.93,8 C24.93,10.167 23.167,11.93 21,11.93 L21,11.93 Z M21,5.93 C19.858,5.93 18.93,6.858 18.93,8 C18.93,9.142 19.858,10.07 21,10.07 C22.142,10.07 23.07,9.142 23.07,8 C23.07,6.858 22.142,5.93 21,5.93 L21,5.93 Z" id="Fill-130"></path>
                    </g>
                </g>
            </g>
        </g>
    </g>
</svg>